<?xml version="1.0" standalone="no"?>
<!DOCTYPE svg PUBLIC "-//W3C//DTD SVG 20010904//EN"
 "http://www.w3.org/TR/2001/REC-SVG-20010904/DTD/svg10.dtd">
<svg version="1.0" xmlns="http://www.w3.org/2000/svg"
 width="1856.000000pt" height="872.000000pt" viewBox="0 0 1856.000000 872.000000"
 preserveAspectRatio="xMidYMid meet">

<g transform="translate(0.000000,872.000000) scale(0.100000,-0.100000)"
fill="#000000" stroke="none">
<path d="M18210 8495 c-18 -85 -55 -175 -184 -444 -63 -130 -159 -333 -214
-451 -55 -118 -188 -392 -296 -608 -108 -217 -196 -400 -196 -408 0 -8 3 -14
8 -13 8 0 398 789 527 1066 46 100 132 281 189 402 58 120 119 252 135 293 31
79 56 187 49 210 -3 7 -11 -14 -18 -47z"/>
<path d="M1495 7573 c-229 -28 -364 -63 -504 -129 -336 -158 -507 -435 -537
-872 l-7 -102 -223 0 -224 0 0 -280 0 -280 225 0 225 0 0 -1230 0 -1230 395 0
395 0 0 1230 0 1230 260 0 260 0 0 280 0 280 -260 0 -260 0 0 68 c0 37 7 98
15 137 37 174 140 244 388 261 l97 7 0 318 0 319 -107 -1 c-60 -1 -121 -4
-138 -6z"/>
<path d="M9090 5515 l0 -2065 400 0 400 0 0 476 0 476 192 199 c105 109 195
199 198 199 4 0 155 -304 336 -675 l329 -675 448 0 c246 0 447 1 447 3 0 2
-221 430 -491 951 -270 521 -488 953 -486 960 3 6 220 248 483 537 264 289
488 535 498 547 l19 22 -489 -1 -489 0 -475 -550 c-261 -302 -485 -559 -497
-571 l-23 -21 0 1126 0 1127 -400 0 -400 0 0 -2065z"/>
<path d="M5360 6534 c-114 -19 -261 -71 -355 -125 -104 -59 -231 -180 -302
-287 l-58 -87 -3 218 -2 217 -380 0 -380 0 0 -1510 0 -1510 400 0 400 0 0 898
c0 590 4 928 11 987 35 286 169 456 411 522 80 22 327 24 408 4 160 -40 236
-117 288 -289 15 -52 17 -150 20 -1089 l3 -1033 404 0 405 0 0 1078 c0 665 -4
1111 -10 1167 -51 451 -316 747 -747 834 -122 25 -378 27 -513 5z"/>
<path d="M13319 6535 c-681 -110 -1095 -568 -1170 -1294 -23 -222 -2 -591 46
-804 128 -567 469 -915 1007 -1027 303 -63 669 -53 916 25 400 126 700 423
838 829 13 38 24 71 24 73 0 2 -184 3 -409 3 l-410 0 -26 -57 c-77 -169 -251
-269 -485 -280 -362 -17 -620 204 -694 597 -9 45 -16 97 -16 116 l0 34 1040 0
1040 0 0 123 c0 351 -80 725 -210 992 -173 353 -454 570 -848 656 -127 28
-508 36 -643 14z m408 -630 c264 -62 441 -283 469 -583 l7 -72 -619 2 -619 3
3 55 c5 76 47 212 90 295 47 90 165 209 245 249 128 64 288 83 424 51z"/>
<path d="M2260 4960 l0 -1510 400 0 400 0 0 1510 0 1510 -400 0 -400 0 0
-1510z"/>
<path d="M7460 4960 l0 -1510 400 0 400 0 0 1510 0 1510 -400 0 -400 0 0
-1510z"/>
<path d="M18541 6255 c-6 -125 -51 -179 -765 -910 -210 -215 -563 -579 -786
-810 -528 -548 -1043 -1068 -1093 -1102 -31 -22 -54 -28 -107 -31 -85 -5 -128
14 -176 76 -19 25 -34 40 -34 34 0 -18 64 -96 99 -119 27 -19 48 -23 106 -23
62 0 77 4 119 31 57 35 241 220 831 829 237 245 570 588 740 763 879 903 963
993 1026 1090 38 59 54 119 46 173 l-4 29 -2 -30z"/>
<path d="M15490 5811 c0 -6 15 -27 33 -47 27 -30 41 -36 97 -44 36 -5 256 -10
490 -11 234 0 466 -4 515 -8 90 -7 124 2 87 24 -10 6 -230 12 -562 16 -364 5
-557 11 -582 18 -20 7 -46 23 -58 38 -11 14 -20 21 -20 14z"/>
<path d="M472 2263 l3 -678 80 0 80 0 3 678 2 677 -85 0 -85 0 2 -677z"/>
<path d="M6682 2263 l3 -678 83 -3 82 -3 0 350 0 349 42 36 c63 54 124 80 198
84 87 4 144 -24 180 -88 l25 -45 3 -342 3 -343 80 0 80 0 -3 358 c-3 347 -4
358 -26 406 -31 67 -66 112 -110 140 -123 76 -298 56 -422 -49 l-45 -38 -3
272 -2 271 -85 0 -85 0 2 -677z"/>
<path d="M2507 2912 c-42 -28 -56 -53 -57 -100 0 -37 6 -50 34 -78 29 -29 41
-34 79 -34 37 0 51 5 76 30 57 58 48 138 -22 180 -40 25 -74 25 -110 2z"/>
<path d="M9304 2921 c-34 -15 -74 -70 -74 -102 0 -68 49 -119 115 -119 66 0
115 51 115 120 0 66 -95 127 -156 101z"/>
<path d="M4572 2808 c-5 -7 -18 -78 -29 -158 l-18 -144 -30 -8 c-17 -4 -51
-10 -77 -13 -48 -6 -48 -7 -48 -44 0 -51 14 -61 86 -61 l63 0 3 -332 c3 -324
4 -334 26 -375 12 -24 41 -55 63 -70 81 -54 257 -38 335 30 l24 22 -25 43
c-15 23 -32 42 -38 42 -7 0 -30 -9 -52 -20 -56 -29 -98 -26 -137 9 l-33 29 -3
311 -3 311 136 0 135 0 0 60 0 60 -135 0 -135 0 0 160 0 160 -49 0 c-27 0 -53
-6 -59 -12z"/>
<path d="M14141 2518 c-41 -11 -105 -54 -146 -97 -26 -28 -30 -30 -37 -14 -3
10 -7 32 -7 50 -1 42 -32 63 -93 63 l-48 0 0 -470 0 -470 80 0 80 0 0 352 0
352 46 42 c104 97 236 98 306 3 31 -42 38 -123 38 -440 l0 -309 80 0 79 0 3
338 c3 328 4 338 26 379 56 106 211 137 297 62 60 -53 65 -88 65 -456 l0 -323
81 0 80 0 -3 363 -3 362 -26 55 c-70 149 -252 211 -415 141 -53 -23 -122 -86
-146 -134 l-14 -28 -24 51 c-54 116 -170 165 -299 128z"/>
<path d="M2480 2050 l0 -470 80 0 80 0 0 470 0 470 -80 0 -80 0 0 -470z"/>
<path d="M9260 2050 l0 -470 80 0 80 0 0 470 0 470 -80 0 -80 0 0 -470z"/>
<path d="M11232 2158 l3 -363 27 -58 c33 -71 87 -121 158 -148 45 -17 71 -20
140 -17 96 5 139 22 231 94 55 42 57 43 63 21 3 -12 6 -34 6 -49 0 -42 24 -58
86 -58 l54 0 0 470 0 470 -80 0 -80 0 0 -349 0 -349 -42 -36 c-69 -59 -133
-86 -205 -86 -35 0 -78 6 -96 14 -42 17 -83 66 -97 114 -6 22 -10 170 -10 365
l0 327 -81 0 -80 0 3 -362z"/>
<path d="M6604 950 c-112 -16 -159 -62 -175 -172 -5 -35 -9 -69 -9 -75 0 -8
-15 -13 -40 -13 l-40 0 0 -45 0 -45 40 0 40 0 0 -290 0 -290 55 0 55 0 0 290
0 290 75 0 75 0 0 45 0 45 -69 0 c-39 0 -72 4 -75 9 -3 5 -3 31 1 57 8 64 46
104 97 104 l36 0 0 50 c0 28 -3 49 -7 49 -5 -1 -31 -5 -59 -9z"/>
<path d="M11375 950 c-72 -11 -97 -23 -132 -64 -31 -34 -39 -62 -45 -156 -3
-34 -5 -35 -45 -38 l-43 -3 0 -45 0 -44 45 0 45 0 0 -290 0 -290 55 0 55 0 0
290 0 290 70 0 70 0 0 45 0 45 -70 0 -70 0 0 56 c0 48 4 59 29 85 22 21 39 29
65 29 l36 0 0 50 c0 28 -3 49 -7 49 -5 -1 -30 -5 -58 -9z"/>
<path d="M4520 475 l0 -455 55 0 55 0 0 198 c1 215 8 270 46 319 82 108 268
86 322 -37 12 -27 17 -85 20 -258 l4 -222 55 0 55 0 -4 238 c-4 218 -6 241
-27 287 -29 65 -64 102 -126 131 -95 45 -223 27 -304 -42 l-41 -36 0 166 0
166 -55 0 -55 0 0 -455z"/>
<path d="M14777 924 c-4 -4 -7 -209 -7 -456 l0 -448 60 0 60 0 -2 452 -3 453
-50 3 c-28 2 -54 0 -58 -4z"/>
<path d="M15080 475 l0 -455 55 0 55 0 0 455 0 455 -55 0 -55 0 0 -455z"/>
<path d="M4100 775 l0 -85 -45 0 -45 0 0 -45 0 -45 44 0 45 0 3 -237 c3 -272
6 -285 78 -320 34 -18 61 -23 122 -23 l78 0 0 45 0 45 -60 0 c-51 0 -65 4 -85
25 l-25 24 0 221 0 220 85 0 85 0 0 45 0 45 -85 0 -85 0 0 85 0 85 -55 0 -55
0 0 -85z"/>
<path d="M7620 775 l0 -85 -45 0 -45 0 0 -45 0 -45 44 0 44 0 4 -237 c3 -227
4 -240 26 -274 30 -50 81 -69 182 -69 l80 0 0 45 0 45 -64 0 c-48 0 -70 5 -87
19 -24 19 -24 22 -27 245 l-3 226 90 0 91 0 0 45 0 45 -90 0 -90 0 0 85 0 85
-55 0 -55 0 0 -85z"/>
<path d="M5493 686 c-91 -30 -148 -80 -190 -171 -25 -53 -28 -71 -28 -160 0
-89 3 -107 29 -163 53 -116 160 -182 295 -182 143 0 250 63 296 174 l15 36
-58 0 c-57 0 -59 -1 -83 -38 -31 -47 -98 -82 -160 -82 -116 0 -200 67 -224
177 l-7 33 272 0 272 0 -4 88 c-4 68 -10 98 -31 138 -30 60 -83 109 -146 137
-58 26 -188 33 -248 13z m175 -91 c78 -23 142 -101 142 -171 l0 -24 -215 0
-215 0 6 28 c21 84 50 123 116 156 60 30 94 32 166 11z"/>
<path d="M9055 681 c-22 -10 -55 -34 -72 -54 -18 -21 -35 -37 -38 -37 -3 0 -5
23 -5 50 l0 50 -55 0 -55 0 0 -335 0 -335 54 0 54 0 4 218 c4 208 5 219 28
261 30 54 71 80 139 88 l51 6 0 53 0 54 -32 0 c-18 0 -51 -9 -73 -19z"/>
<path d="M9477 686 c-92 -26 -181 -114 -209 -209 -20 -69 -15 -203 11 -270 31
-78 99 -148 174 -175 64 -24 175 -29 239 -12 79 22 170 106 192 178 7 21 5 22
-51 22 -56 -1 -59 -2 -86 -41 -97 -140 -351 -79 -374 90 l-6 41 266 0 267 0 6
25 c9 37 -5 133 -26 182 -27 61 -93 127 -153 153 -64 28 -181 36 -250 16z
m163 -87 c82 -19 150 -95 150 -169 l0 -30 -210 0 -210 0 0 23 c1 63 68 148
136 172 47 17 75 18 134 4z"/>
<path d="M10594 691 c-154 -40 -245 -164 -245 -336 0 -144 62 -254 176 -313
67 -34 190 -42 267 -17 151 49 229 164 229 336 0 197 -123 327 -315 335 -45 2
-95 0 -112 -5z m147 -95 c55 -10 113 -57 143 -117 55 -111 24 -264 -66 -329
-52 -38 -124 -53 -186 -39 -104 23 -162 97 -170 215 -6 89 9 149 50 198 43 52
127 90 178 81 8 -2 31 -6 51 -9z"/>
<path d="M12095 687 c-93 -31 -159 -89 -198 -176 -31 -67 -31 -246 -1 -312 30
-64 88 -125 148 -157 46 -24 61 -27 156 -27 89 0 112 3 151 23 57 28 112 81
139 136 l20 41 -57 3 c-47 3 -60 0 -68 -14 -17 -30 -69 -75 -102 -90 -38 -17
-103 -18 -157 -3 -68 19 -146 119 -146 188 0 8 75 11 270 11 l270 0 0 70 c0
187 -118 310 -304 317 -49 2 -97 -2 -121 -10z m211 -107 c49 -24 88 -79 99
-142 l7 -38 -217 0 -217 0 7 33 c10 42 38 98 62 119 10 9 39 26 63 38 55 26
129 22 196 -10z"/>
<path d="M13433 682 c-122 -44 -194 -143 -209 -291 -12 -109 33 -240 103 -302
60 -52 111 -72 200 -77 160 -9 271 58 323 193 9 25 9 25 -48 25 -56 -1 -57 -1
-83 -44 -60 -99 -220 -117 -308 -34 -50 47 -72 106 -73 191 -1 102 16 154 66
203 82 82 209 85 286 5 19 -20 40 -44 45 -54 8 -15 20 -18 67 -15 l57 3 -20
45 c-26 59 -72 106 -134 137 -68 35 -196 42 -272 15z"/>
<path d="M14193 686 c-91 -30 -148 -80 -190 -171 -25 -53 -28 -71 -28 -160 0
-89 3 -107 29 -163 54 -116 160 -182 295 -182 147 0 257 67 300 183 l11 27
-59 0 c-56 0 -58 -1 -82 -38 -31 -47 -98 -82 -160 -82 -116 0 -201 68 -222
178 l-6 32 269 0 270 0 1 33 c7 161 -55 274 -180 330 -58 26 -188 33 -248 13z
m170 -90 c25 -7 59 -23 75 -35 33 -23 72 -97 72 -136 l0 -25 -211 0 -212 0 6
41 c8 58 50 114 110 144 58 28 94 31 160 11z"/>
<path d="M15563 686 c-91 -30 -148 -80 -190 -171 -25 -53 -28 -71 -28 -160 0
-89 3 -107 29 -163 54 -116 160 -182 295 -182 147 0 257 67 300 183 l11 27
-59 0 c-56 0 -58 -1 -82 -38 -31 -47 -98 -82 -160 -82 -116 0 -201 68 -222
178 l-6 32 269 0 270 0 1 33 c7 161 -55 274 -180 330 -58 26 -188 33 -248 13z
m170 -90 c25 -7 59 -23 75 -35 33 -23 72 -97 72 -136 l0 -25 -211 0 -212 0 6
41 c8 58 50 114 110 144 58 28 94 31 160 11z"/>
<path d="M16372 684 c-23 -9 -58 -31 -77 -49 l-35 -32 0 43 0 44 -60 0 -60 0
0 -335 0 -335 59 0 60 0 3 233 3 234 27 40 c72 109 254 103 319 -11 23 -39 24
-50 27 -268 l3 -228 56 0 55 0 -5 238 c-2 146 -9 252 -16 275 -16 49 -73 112
-125 139 -54 28 -174 34 -234 12z"/>
<path d="M17103 682 c-122 -44 -194 -143 -209 -291 -12 -109 33 -240 103 -302
60 -52 111 -72 200 -77 160 -9 271 58 323 193 9 25 9 25 -48 25 -56 -1 -57 -1
-83 -44 -60 -99 -220 -117 -308 -34 -50 47 -72 106 -73 191 -1 102 16 154 66
203 82 82 209 85 286 5 19 -20 40 -44 45 -54 8 -15 20 -18 67 -15 l57 3 -20
45 c-26 59 -72 106 -134 137 -68 35 -196 42 -272 15z"/>
<path d="M17863 686 c-91 -30 -148 -80 -190 -171 -25 -53 -28 -71 -28 -160 0
-89 3 -107 29 -163 54 -116 160 -182 295 -182 147 0 257 67 300 183 l11 27
-59 0 c-56 0 -58 -1 -82 -38 -62 -96 -229 -108 -322 -24 -24 22 -52 78 -60
120 l-6 32 269 0 270 0 1 33 c7 161 -55 274 -180 330 -58 26 -188 33 -248 13z
m213 -107 c53 -25 93 -80 101 -138 l6 -41 -213 0 -213 0 6 41 c13 97 115 175
215 165 29 -2 73 -14 98 -27z"/>
<path d="M6802 453 c3 -224 4 -241 26 -288 47 -101 114 -146 233 -153 66 -4
82 -1 132 22 31 15 66 39 77 53 l20 26 0 -47 0 -46 60 0 60 0 0 335 0 335 -60
0 -60 0 0 -223 c0 -211 -1 -225 -22 -267 -27 -54 -72 -85 -132 -94 -81 -13
-160 22 -197 88 -23 39 -24 50 -27 269 l-3 227 -55 0 -56 0 4 -237z"/>
<path d="M8040 467 c0 -244 7 -287 56 -358 39 -57 128 -99 209 -99 81 0 148
24 191 68 l34 35 0 -46 0 -47 55 0 55 0 0 335 0 335 -55 0 -55 0 0 -211 c0
-236 -7 -275 -56 -324 -54 -55 -161 -67 -237 -29 -15 8 -39 33 -55 56 l-27 41
-3 234 -3 233 -55 0 -54 0 0 -223z"/>
<path d="M12600 686 c0 -3 37 -63 83 -133 45 -70 93 -145 106 -166 l23 -37
-99 -153 c-55 -83 -103 -158 -107 -165 -6 -10 5 -12 50 -10 l58 3 71 114 c39
63 75 114 80 114 6 0 43 -52 84 -116 l74 -117 58 0 c33 0 59 3 59 6 0 4 -46
79 -102 167 -57 88 -102 164 -100 169 1 5 46 75 98 156 53 81 99 153 101 160
4 9 -10 12 -49 12 l-55 0 -73 -120 c-40 -67 -76 -120 -81 -118 -4 2 -41 55
-82 118 l-74 115 -61 3 c-34 2 -62 1 -62 -2z"/>
<path d="M18432 140 c-14 -14 -22 -33 -22 -55 0 -67 74 -99 118 -52 64 68 -28
170 -96 107z"/>
</g>
</svg>
